<svg xmlns="http://www.w3.org/2000/svg" width="15px" height="15px" viewBox="0 0 15 15">
	<style>
		.none {
			stroke:#000;
			stroke-width:1;
			stroke-linecap:round;
			fill:none;
		}
	</style>

	<path fill="#848484" d="M0.5 4.5v-2l2 -2h10l2 2v2z"/>
	<path fill="#3CC982" d="M0.5 4.5v8l2 2h10l2 -2v-8z"/>

	<rect class="none" x="0.5" y="0.5" width="14" height="14" rx="3"/>
	<line stroke="#000" x1="0.5" y1="4.5" x2="14.5" y2="4.5"/>

	<circle fill="#000" cx="3" cy="2.5" r="0.5"/>
	<circle fill="#000" cx="5" cy="2.5" r="0.5"/>
	<circle fill="#000" cx="7" cy="2.5" r="0.5"/>

	<path class="none" d="M4.5 7.5h-1c-0.5,0 -1,0.5 -1,1v2c0,0.5 0.5,1 1,1l1 0"/>
	<path class="none" d="M8.5 7.5c-0.89,0 -0.66,0 -1.25,0 -0.41,0 -0.75,0.34 -0.75,0.75l0 0.5c0,0.41 0.34,0.75 0.75,0.75 0.95,0 -0.45,0 0.5,0 0.41,0 0.75,0.34 0.75,0.75l0 0.5c0,0.41 -0.34,0.75 -0.75,0.75 -0.59,0 -0.36,0 -1.25,0"/>
	<path class="none" d="M12.5 7.5c-0.89,0 -0.66,0 -1.25,0 -0.41,0 -0.75,0.34 -0.75,0.75l0 0.5c0,0.41 0.34,0.75 0.75,0.75 0.95,0 -0.45,0 0.5,0 0.41,0 0.75,0.34 0.75,0.75l0 0.5c0,0.41 -0.34,0.75 -0.75,0.75 -0.59,0 -0.36,0 -1.25,0"/>
</svg>