<svg xmlns="http://www.w3.org/2000/svg" viewBox="0 0 7 7"><path d="M2.1748 4.3238c0.2603,0 0.4733,-0.1124 0.5946,-0.2988 0.0237,-0.0355 0.0326,-0.0651 0.0326,-0.1006 0,-0.0976 -0.0799,-0.1775 -0.1775,-0.1775 -0.0533,0 -0.0947,0.0148 -0.1361,0.0621 -0.0799,0.0888 -0.1805,0.1479 -0.3077,0.1479 -0.2248,0 -0.3846,-0.1656 -0.3846,-0.4023 0,-0.2337 0.1598,-0.3994 0.3846,-0.3994 0.1302,0 0.2337,0.0592 0.3077,0.1479 0.0355,0.0444 0.0799,0.0621 0.1361,0.0621 0.0976,0 0.1775,-0.0798 0.1775,-0.1775 0,-0.0325 -0.0089,-0.065 -0.0355,-0.1065 -0.1124,-0.1716 -0.3432,-0.2899 -0.5917,-0.2899 -0.4408,0 -0.784,0.3343 -0.784,0.7633 0,0.429 0.3432,0.7692 0.784,0.7692zm1.4053 0c0.3195,0 0.571,-0.1657 0.571,-0.4674 0,-0.2278 -0.148,-0.3403 -0.4113,-0.4468l-0.142 -0.0591c-0.1065,-0.0415 -0.1538,-0.071 -0.1538,-0.1302 0,-0.071 0.0621,-0.1036 0.1568,-0.1036 0.0976,0 0.1893,0.0355 0.2663,0.0888 0.0355,0.0237 0.071,0.0414 0.1065,0.0414 0.0887,0 0.1627,-0.074 0.1627,-0.1657 0,-0.0532 -0.0237,-0.1006 -0.071,-0.1361 -0.1184,-0.1005 -0.287,-0.1568 -0.4616,-0.1568 -0.3106,0 -0.5384,0.1598 -0.5384,0.4409 0,0.2307 0.1509,0.3461 0.3994,0.4467l0.1568 0.0651c0.0888,0.0384 0.1509,0.0651 0.1509,0.1331 0,0.0828 -0.0858,0.1213 -0.1864,0.1213 -0.1272,0 -0.2337,-0.0562 -0.3195,-0.1302 -0.0414,-0.0325 -0.0769,-0.0443 -0.1154,-0.0443 -0.0917,0 -0.1657,0.0769 -0.1657,0.1686 0,0.0473 0.0178,0.0917 0.0562,0.1242 0.1302,0.1273 0.3196,0.2101 0.5385,0.2101zm1.3461 0c0.3195,0 0.571,-0.1657 0.571,-0.4674 0,-0.2278 -0.148,-0.3403 -0.4113,-0.4468l-0.142 -0.0591c-0.1065,-0.0415 -0.1538,-0.071 -0.1538,-0.1302 0,-0.071 0.0621,-0.1036 0.1568,-0.1036 0.0976,0 0.1893,0.0355 0.2663,0.0888 0.0355,0.0237 0.071,0.0414 0.1065,0.0414 0.0887,0 0.1627,-0.074 0.1627,-0.1657 0,-0.0532 -0.0237,-0.1006 -0.071,-0.1361 -0.1184,-0.1005 -0.287,-0.1568 -0.4616,-0.1568 -0.3106,0 -0.5384,0.1598 -0.5384,0.4409 0,0.2307 0.1509,0.3461 0.3994,0.4467l0.1568 0.0651c0.0888,0.0384 0.1509,0.0651 0.1509,0.1331 0,0.0828 -0.0858,0.1213 -0.1864,0.1213 -0.1272,0 -0.2337,-0.0562 -0.3195,-0.1302 -0.0414,-0.0325 -0.0769,-0.0443 -0.1154,-0.0443 -0.0917,0 -0.1657,0.0769 -0.1657,0.1686 0,0.0473 0.0178,0.0917 0.0562,0.1242 0.1302,0.1273 0.3196,0.2101 0.5385,0.2101z"/></svg>
