<svg xmlns="http://www.w3.org/2000/svg" viewBox="0 0 7 7"><path d="M1.4656 3.2072c-0.1464,0 -0.2715,0.0532 -0.3621,0.1437l0 -0.6416c0,-0.1065 -0.0772,-0.1837 -0.1784,-0.1837 -0.1038,0 -0.181,0.0798 -0.181,0.1837l0 1.6933c0,0.1039 0.0772,0.1838 0.181,0.1838 0.1012,0 0.1784,-0.0773 0.1784,-0.1838l0 -0.615c0,-0.1518 0.1039,-0.2556 0.2503,-0.2556 0.1464,0 0.245,0.1012 0.245,0.2556l0 0.615c0,0.1039 0.0772,0.1838 0.1783,0.1838 0.1039,0 0.1784,-0.0773 0.1784,-0.1838l0 -0.6656c0,-0.3195 -0.1943,-0.5298 -0.4899,-0.5298zm1.555 1.0543c-0.0133,0 -0.0293,0.0027 -0.0506,0.0027 -0.1678,0 -0.237,-0.0586 -0.237,-0.205l0 -0.5192 0.2423 0c0.0879,0 0.1518,-0.0639 0.1518,-0.1518 0,-0.0878 -0.0639,-0.1517 -0.1518,-0.1517l-0.2423 0 0 -0.1811c0,-0.1038 -0.0772,-0.181 -0.1784,-0.181 -0.1065,0 -0.181,0.0772 -0.181,0.181l0 0.1811 -0.0746 0c-0.0878,0 -0.1544,0.0639 -0.1544,0.1517 0,0.0879 0.0666,0.1518 0.1544,0.1518l0.0746 0 0 0.5511c0,0.3222 0.1837,0.4953 0.5272,0.4953 0.0772,0 0.1357,-0.0134 0.1863,-0.0347 0.056,-0.0266 0.0907,-0.0772 0.0907,-0.1437 0,-0.0879 -0.0614,-0.1465 -0.1572,-0.1465zm1.9224 -1.0543c-0.1757,0 -0.3355,0.0719 -0.4393,0.189 -0.0852,-0.1225 -0.221,-0.189 -0.3914,-0.189 -0.1438,0 -0.2663,0.0479 -0.3568,0.1331 -0.0213,-0.0799 -0.0852,-0.1331 -0.1677,-0.1331 -0.1012,0 -0.1784,0.0772 -0.1784,0.181l0 1.0144c0,0.1039 0.0772,0.1838 0.181,0.1838 0.1012,0 0.1784,-0.0773 0.1784,-0.1838l0 -0.615c0,-0.1544 0.0959,-0.2556 0.2423,-0.2556 0.1411,0 0.2343,0.0985 0.2343,0.2556l0 0.615c0,0.1039 0.0772,0.1838 0.1811,0.1838 0.1011,0 0.1784,-0.0773 0.1784,-0.1838l0 -0.623c0,-0.1464 0.0985,-0.2476 0.2422,-0.2476 0.1438,0 0.2343,0.0985 0.2343,0.2556l0 0.615c0,0.1039 0.0773,0.1838 0.1811,0.1838 0.1012,0 0.1784,-0.0773 0.1784,-0.1838l0 -0.6656c0,-0.3248 -0.1917,-0.5298 -0.4979,-0.5298zm1.0224 1.3792c0.1012,0 0.1784,-0.0799 0.1784,-0.1838l0 -1.6933c0,-0.1039 -0.0772,-0.1837 -0.1784,-0.1837 -0.1038,0 -0.181,0.0798 -0.181,0.1837l0 1.6933c0,0.1039 0.0772,0.1838 0.181,0.1838z"/></svg>
