<svg xmlns="http://www.w3.org/2000/svg" width="15px" height="15px" viewBox="0 0 15 15">
	<style>
		.none {
			stroke:#000;
			stroke-width:1;
			stroke-linecap:round;
			fill:none;
		}   
	</style>

	<clipPath id="mask">
		<rect x="0" y="0" width="15" height="15" rx="3"/>
    </clipPath>

	<rect fill="#000" x="0" y="0" width="15" height="5" clip-path="url(#mask)"/>
	<rect fill="#3CC982" x="0" y="4.5" width="15" height="11" clip-path="url(#mask)"/>

	<circle fill="#EB534E" cx="3.5" cy="3" r="0.5"/>
	<circle fill="#EFC535" cx="5.5" cy="3" r="0.5"/>
	<circle fill="#4DC363" cx="7.5" cy="3" r="0.5"/>

	<path class="none" d="M4.5 7h-1c-0.5,0 -1,0.5 -1,1v2c0,0.5 0.5,1 1,1l1 0"/>
	<path class="none" d="M8.5 7c-0.89,0 -0.66,0 -1.25,0 -0.41,0 -0.75,0.34 -0.75,0.75l0 0.5c0,0.41 0.34,0.75 0.75,0.75 0.95,0 -0.45,0 0.5,0 0.41,0 0.75,0.34 0.75,0.75l0 0.5c0,0.41 -0.34,0.75 -0.75,0.75 -0.59,0 -0.36,0 -1.25,0"/>
	<path class="none" d="M12.5 7c-0.89,0 -0.66,0 -1.25,0 -0.41,0 -0.75,0.34 -0.75,0.75l0 0.5c0,0.41 0.34,0.75 0.75,0.75 0.95,0 -0.45,0 0.5,0 0.41,0 0.75,0.34 0.75,0.75l0 0.5c0,0.41 -0.34,0.75 -0.75,0.75 -0.59,0 -0.36,0 -1.25,0"/>
</svg>
